<svg width="168" height="38" viewBox="0 0 168 38" fill="none" xmlns="http://www.w3.org/2000/svg">
<path d="M56.7461 7.76339C57.2815 12.133 54.7254 15.2073 50.8912 15.2073C47.2642 15.2073 44.6218 12.582 44.6218 8.95509C44.6218 5.32815 47.2642 2.72021 50.8912 2.72021C52.6356 2.72021 54.4836 3.58377 55.5371 4.89637L53.6028 6.60622C52.9637 5.86356 51.8584 5.36269 50.943 5.36269C49.0259 5.36269 47.6097 6.81347 47.6097 8.95509C47.6097 11.0967 49.0259 12.4784 50.943 12.4784C52.5147 12.4784 53.7409 11.5112 54 10.0604H51.133V7.76339H56.7461ZM62.8006 5.32815C66.013 5.32815 67.8438 8.26425 67.4465 11.304H60.7281C61.0735 12.1848 61.8334 12.7202 62.7833 12.7202C63.5087 12.7202 64.1477 12.3748 64.5623 11.8048L66.6693 13.2556C65.7885 14.4646 64.4932 15.1727 62.8006 15.1727C60.0372 15.1727 58.0165 13.0484 58.0165 10.2504C58.0165 7.43523 60.0372 5.32815 62.8006 5.32815ZM62.7833 7.8152C61.7471 7.8152 60.9526 8.41969 60.6762 9.40414H64.8041C64.5795 8.54059 63.906 7.8152 62.7833 7.8152ZM74.5497 5.32815C76.7604 5.32815 78.073 6.72712 78.073 9.40414V15H75.3096V9.57686C75.3096 8.43696 74.6015 7.64249 73.5652 7.64249C72.5289 7.64249 71.8208 8.43696 71.8208 9.57686V15H69.0574V5.50086H71.8208V6.50259C72.4599 5.74266 73.4098 5.32815 74.5497 5.32815ZM84.2459 5.32815C87.4583 5.32815 89.2891 8.26425 88.8919 11.304H82.1734C82.5188 12.1848 83.2787 12.7202 84.2286 12.7202C84.954 12.7202 85.5931 12.3748 86.0076 11.8048L88.1147 13.2556C87.2338 14.4646 85.9385 15.1727 84.2459 15.1727C81.4825 15.1727 79.4618 13.0484 79.4618 10.2504C79.4618 7.43523 81.4825 5.32815 84.2459 5.32815ZM84.2286 7.8152C83.1924 7.8152 82.3979 8.41969 82.1216 9.40414H86.2494C86.0248 8.54059 85.3513 7.8152 84.2286 7.8152ZM93.1452 7.12435C93.6634 5.88083 94.976 5.27634 96.444 5.41451V8.02245C94.9069 7.84974 93.2661 8.55786 93.2661 10.9758V15H90.5028V5.50086H92.8344L93.0762 7.10708L93.1452 7.12435ZM101.334 5.31088C104.028 5.31088 105.772 6.45078 105.772 9.52504V15H102.957V14.5682C102.37 14.9482 101.61 15.1727 100.764 15.1727C98.5185 15.1727 96.9122 13.791 96.9122 11.8912C96.9122 9.99136 98.5185 8.60967 100.764 8.60967C101.61 8.60967 102.353 8.8342 102.94 9.21416C102.836 8.00518 102.042 7.55613 100.85 7.55613C99.8829 7.55613 98.8639 7.91883 98.173 8.31606L97.2749 6.41623C98.0867 5.91537 99.6584 5.31088 101.334 5.31088ZM101.368 13.1865C102.387 13.1865 103.061 12.6339 103.061 11.8566C103.061 11.0794 102.387 10.5268 101.368 10.5268C100.384 10.5268 99.6756 11.0794 99.6756 11.8566C99.6756 12.6339 100.384 13.1865 101.368 13.1865ZM111.886 12.582H112.75V15H110.867C108.795 15 107.914 13.9119 107.914 12.0812V7.65976H106.947V5.50086H107.914V3.61831L110.677 3.10017V5.50086H112.491V7.65976H110.677V11.1313C110.677 12.2539 110.954 12.582 111.886 12.582ZM118.102 15.2245C115.269 15.2245 113.231 13.1693 113.231 10.2504C113.231 7.33161 115.269 5.27634 118.102 5.27634C120.934 5.27634 122.972 7.33161 122.972 10.2504C122.972 13.1693 120.934 15.2245 118.102 15.2245ZM118.102 12.7375C119.345 12.7375 120.295 11.6839 120.295 10.2504C120.295 8.81693 119.345 7.76339 118.102 7.76339C116.858 7.76339 115.908 8.81693 115.908 10.2504C115.908 11.6839 116.858 12.7375 118.102 12.7375ZM127.169 7.12435C127.687 5.88083 128.999 5.27634 130.467 5.41451V8.02245C128.93 7.84974 127.29 8.55786 127.29 10.9758V15H124.526V5.50086H126.858L127.1 7.10708L127.169 7.12435ZM133.369 4.56822C132.436 4.56822 131.711 3.84283 131.711 2.91019C131.711 1.97755 132.436 1.25216 133.369 1.25216C134.301 1.25216 135.027 1.97755 135.027 2.91019C135.027 3.84283 134.301 4.56822 133.369 4.56822ZM131.987 15V5.50086H134.751V15H131.987ZM147.749 5.32815C149.717 5.32815 151.013 6.58895 151.013 8.8342V15H148.249V9.19689C148.249 8.26425 147.662 7.62522 146.816 7.62522C145.918 7.62522 145.313 8.26425 145.313 9.19689V15H142.55V9.19689C142.55 8.26425 141.963 7.62522 141.116 7.62522C140.218 7.62522 139.614 8.26425 139.614 9.19689V15H136.85V5.50086H139.614V6.39896C140.201 5.70812 141.047 5.32815 142.118 5.32815C143.362 5.32815 144.225 5.84629 144.709 6.77893C145.348 5.84629 146.401 5.32815 147.749 5.32815Z" fill="white"/>
<path d="M46.5734 34.1209C45.5371 34.1209 44.7081 33.2919 44.7081 32.2556C44.7081 31.2193 45.5371 30.3903 46.5734 30.3903C47.6097 30.3903 48.4387 31.2193 48.4387 32.2556C48.4387 33.2919 47.6097 34.1209 46.5734 34.1209ZM55.6786 34.2073C52.138 34.2073 49.4264 31.5302 49.4264 27.9551C49.4264 24.38 52.138 21.7029 55.6786 21.7029C59.2192 21.7029 61.9308 24.38 61.9308 27.9551C61.9308 31.5302 59.2192 34.2073 55.6786 34.2073ZM55.6786 31.4439C57.5612 31.4439 58.9947 29.9585 58.9947 27.9551C58.9947 25.9516 57.5612 24.4663 55.6786 24.4663C53.7961 24.4663 52.3625 25.9516 52.3625 27.9551C52.3625 29.9585 53.7961 31.4439 55.6786 31.4439ZM69.1005 24.3282C71.3112 24.3282 72.6238 25.7271 72.6238 28.4041V34H69.8604V28.5769C69.8604 27.437 69.1523 26.6425 68.116 26.6425C67.0797 26.6425 66.3716 27.437 66.3716 28.5769V34H63.6082V24.5009H66.3716V25.5026C67.0106 24.7427 67.9606 24.3282 69.1005 24.3282ZM74.5653 34V21.0466H77.3286V34H74.5653ZM80.8102 23.5682C79.8776 23.5682 79.1522 22.8428 79.1522 21.9102C79.1522 20.9775 79.8776 20.2522 80.8102 20.2522C81.7429 20.2522 82.4683 20.9775 82.4683 21.9102C82.4683 22.8428 81.7429 23.5682 80.8102 23.5682ZM79.4285 34V24.5009H82.1919V34H79.4285ZM89.784 24.3282C91.9948 24.3282 93.3074 25.7271 93.3074 28.4041V34H90.544V28.5769C90.544 27.437 89.8359 26.6425 88.7996 26.6425C87.7633 26.6425 87.0552 27.437 87.0552 28.5769V34H84.2918V24.5009H87.0552V25.5026C87.6942 24.7427 88.6442 24.3282 89.784 24.3282ZM99.4803 24.3282C102.693 24.3282 104.523 27.2642 104.126 30.304H97.4077C97.7532 31.1848 98.5131 31.7202 99.463 31.7202C100.188 31.7202 100.827 31.3748 101.242 30.8048L103.349 32.2556C102.468 33.4646 101.173 34.1727 99.4803 34.1727C96.7169 34.1727 94.6962 32.0484 94.6962 29.2504C94.6962 26.4352 96.7169 24.3282 99.4803 24.3282ZM99.463 26.8152C98.4267 26.8152 97.6323 27.4197 97.3559 28.4041H101.484C101.259 27.5406 100.586 26.8152 99.463 26.8152Z" fill="#E99736"/>
<circle cx="15" cy="19" r="15" fill="white"/>
<path d="M20.3555 11.9812C22.6626 13.6292 24.1641 16.3245 24.1641 19.375C24.1641 24.3848 20.1065 28.446 15.1003 28.457C10.1016 28.468 6.00733 24.3921 6.00001 19.3896C5.99634 16.3391 7.49781 13.6365 9.80128 11.9849C10.2297 11.6809 10.8267 11.8091 11.083 12.2668L11.6616 13.2959C11.8777 13.6804 11.7752 14.1675 11.4199 14.4312C9.90015 15.5591 8.92969 17.3462 8.92969 19.3713C8.92603 22.7515 11.658 25.5273 15.082 25.5273C18.4365 25.5273 21.2564 22.8101 21.2344 19.3347C21.2234 17.4377 20.3298 15.6067 18.7405 14.4275C18.3853 14.1638 18.2864 13.6768 18.5024 13.2959L19.0811 12.2668C19.3374 11.8127 19.9307 11.6772 20.3555 11.9812ZM16.5469 19.668V10.8789C16.5469 10.3918 16.155 10 15.668 10H14.4961C14.009 10 13.6172 10.3918 13.6172 10.8789V19.668C13.6172 20.155 14.009 20.5469 14.4961 20.5469H15.668C16.155 20.5469 16.5469 20.155 16.5469 19.668Z" fill="#2E2E2E"/>
</svg>
