<svg width="293" height="30" viewBox="0 0 293 30" fill="none" xmlns="http://www.w3.org/2000/svg">
<circle cx="15" cy="15" r="15" fill="white"/>
<path d="M20.3555 7.9812C22.6626 9.62915 24.1641 12.3245 24.1641 15.375C24.1641 20.3848 20.1065 24.446 15.1003 24.457C10.1016 24.468 6.00733 20.3921 6.00001 15.3896C5.99634 12.3391 7.49781 9.63647 9.80128 7.98486C10.2297 7.68091 10.8267 7.80908 11.083 8.26685L11.6616 9.2959C11.8777 9.68042 11.7752 10.1675 11.4199 10.4312C9.90015 11.5591 8.92969 13.3462 8.92969 15.3713C8.92603 18.7515 11.658 21.5273 15.082 21.5273C18.4365 21.5273 21.2564 18.8101 21.2344 15.3347C21.2234 13.4377 20.3298 11.6067 18.7405 10.4275C18.3853 10.1638 18.2864 9.67676 18.5024 9.2959L19.0811 8.26685C19.3374 7.81274 19.9307 7.67725 20.3555 7.9812ZM16.5469 15.668V6.87891C16.5469 6.39185 16.155 6 15.668 6H14.4961C14.009 6 13.6172 6.39185 13.6172 6.87891V15.668C13.6172 16.155 14.009 16.5469 14.4961 16.5469H15.668C16.155 16.5469 16.5469 16.155 16.5469 15.668Z" fill="#2E2E2E"/>
<path d="M59.1192 13.1451C59.9223 19.6995 56.0881 24.3109 50.3368 24.3109C44.8964 24.3109 40.9326 20.3731 40.9326 14.9326C40.9326 9.49223 44.8964 5.58031 50.3368 5.58031C52.9534 5.58031 55.7254 6.87565 57.3057 8.84456L54.4041 11.4093C53.4456 10.2953 51.7876 9.54404 50.4145 9.54404C47.5389 9.54404 45.4145 11.7202 45.4145 14.9326C45.4145 18.1451 47.5389 20.2176 50.4145 20.2176C52.772 20.2176 54.6114 18.7668 55 16.5907H50.6995V13.1451H59.1192ZM68.2009 9.49223C73.0196 9.49223 75.7657 13.8964 75.1698 18.456H65.0921C65.6102 19.7772 66.7501 20.5803 68.175 20.5803C69.2631 20.5803 70.2216 20.0622 70.8434 19.2073L74.004 21.3834C72.6828 23.1969 70.7398 24.2591 68.2009 24.2591C64.0558 24.2591 61.0247 21.0725 61.0247 16.8756C61.0247 12.6528 64.0558 9.49223 68.2009 9.49223ZM68.175 13.2228C66.6206 13.2228 65.4289 14.1295 65.0144 15.6062H71.2061C70.8693 14.3109 69.8589 13.2228 68.175 13.2228ZM85.8245 9.49223C89.1406 9.49223 91.1095 11.5907 91.1095 15.6062V24H86.9644V15.8653C86.9644 14.1554 85.9022 12.9637 84.3478 12.9637C82.7934 12.9637 81.7312 14.1554 81.7312 15.8653V24H77.5862V9.7513H81.7312V11.2539C82.6898 10.114 84.1147 9.49223 85.8245 9.49223ZM100.369 9.49223C105.188 9.49223 107.934 13.8964 107.338 18.456H97.2601C97.7782 19.7772 98.9181 20.5803 100.343 20.5803C101.431 20.5803 102.39 20.0622 103.011 19.2073L106.172 21.3834C104.851 23.1969 102.908 24.2591 100.369 24.2591C96.2238 24.2591 93.1927 21.0725 93.1927 16.8756C93.1927 12.6528 96.2238 9.49223 100.369 9.49223ZM100.343 13.2228C98.7886 13.2228 97.5968 14.1295 97.1823 15.6062H103.374C103.037 14.3109 102.027 13.2228 100.343 13.2228ZM113.718 12.1865C114.495 10.3212 116.464 9.41451 118.666 9.62176V13.5337C116.36 13.2746 113.899 14.3368 113.899 17.9637V24H109.754V9.7513H113.252L113.614 12.1606L113.718 12.1865ZM126 9.46632C130.042 9.46632 132.659 11.1762 132.659 15.7876V24H128.436V23.3523C127.555 23.9223 126.415 24.2591 125.146 24.2591C121.778 24.2591 119.368 22.1865 119.368 19.3368C119.368 16.487 121.778 14.4145 125.146 14.4145C126.415 14.4145 127.529 14.7513 128.41 15.3212C128.254 13.5078 127.063 12.8342 125.275 12.8342C123.824 12.8342 122.296 13.3782 121.26 13.9741L119.912 11.1244C121.13 10.3731 123.488 9.46632 126 9.46632ZM126.052 21.2798C127.581 21.2798 128.591 20.4508 128.591 19.285C128.591 18.1192 127.581 17.2902 126.052 17.2902C124.576 17.2902 123.513 18.1192 123.513 19.285C123.513 20.4508 124.576 21.2798 126.052 21.2798ZM141.83 20.3731H143.125V24H140.301C137.192 24 135.871 22.3679 135.871 19.6218V12.9896H134.42V9.7513H135.871V6.92746L140.016 6.15026V9.7513H142.736V12.9896H140.016V18.1969C140.016 19.8808 140.431 20.3731 141.83 20.3731ZM151.153 24.3368C146.904 24.3368 143.847 21.2539 143.847 16.8756C143.847 12.4974 146.904 9.41451 151.153 9.41451C155.401 9.41451 158.458 12.4974 158.458 16.8756C158.458 21.2539 155.401 24.3368 151.153 24.3368ZM151.153 20.6062C153.018 20.6062 154.443 19.0259 154.443 16.8756C154.443 14.7254 153.018 13.1451 151.153 13.1451C149.287 13.1451 147.863 14.7254 147.863 16.8756C147.863 19.0259 149.287 20.6062 151.153 20.6062ZM164.753 12.1865C165.53 10.3212 167.499 9.41451 169.701 9.62176V13.5337C167.396 13.2746 164.934 14.3368 164.934 17.9637V24H160.789V9.7513H164.287L164.649 12.1606L164.753 12.1865ZM174.053 8.35233C172.654 8.35233 171.566 7.26425 171.566 5.86528C171.566 4.46632 172.654 3.37824 174.053 3.37824C175.452 3.37824 176.54 4.46632 176.54 5.86528C176.54 7.26425 175.452 8.35233 174.053 8.35233ZM171.981 24V9.7513H176.126V24H171.981ZM195.623 9.49223C198.576 9.49223 200.519 11.3834 200.519 14.7513V24H196.374V15.2953C196.374 13.8964 195.493 12.9378 194.224 12.9378C192.877 12.9378 191.97 13.8964 191.97 15.2953V24H187.825V15.2953C187.825 13.8964 186.944 12.9378 185.675 12.9378C184.327 12.9378 183.421 13.8964 183.421 15.2953V24H179.276V9.7513H183.421V11.0984C184.302 10.0622 185.571 9.49223 187.177 9.49223C189.042 9.49223 190.338 10.2694 191.063 11.6684C192.022 10.2694 193.602 9.49223 195.623 9.49223Z" fill="white"/>
<path d="M205.755 24.1813C204.2 24.1813 202.957 22.9378 202.957 21.3834C202.957 19.829 204.2 18.5855 205.755 18.5855C207.309 18.5855 208.553 19.829 208.553 21.3834C208.553 22.9378 207.309 24.1813 205.755 24.1813ZM219.412 24.3109C214.102 24.3109 210.034 20.2953 210.034 14.9326C210.034 9.56995 214.102 5.5544 219.412 5.5544C224.723 5.5544 228.791 9.56995 228.791 14.9326C228.791 20.2953 224.723 24.3109 219.412 24.3109ZM219.412 20.1658C222.236 20.1658 224.387 17.9378 224.387 14.9326C224.387 11.9275 222.236 9.69948 219.412 9.69948C216.589 9.69948 214.438 11.9275 214.438 14.9326C214.438 17.9378 216.589 20.1658 219.412 20.1658ZM239.545 9.49223C242.861 9.49223 244.83 11.5907 244.83 15.6062V24H240.685V15.8653C240.685 14.1554 239.623 12.9637 238.069 12.9637C236.514 12.9637 235.452 14.1554 235.452 15.8653V24H231.307V9.7513H235.452V11.2539C236.411 10.114 237.835 9.49223 239.545 9.49223ZM247.742 24V4.56995H251.887V24H247.742ZM257.11 8.35233C255.711 8.35233 254.623 7.26425 254.623 5.86528C254.623 4.46632 255.711 3.37824 257.11 3.37824C258.509 3.37824 259.597 4.46632 259.597 5.86528C259.597 7.26425 258.509 8.35233 257.11 8.35233ZM255.037 24V9.7513H259.182V24H255.037ZM270.571 9.49223C273.887 9.49223 275.856 11.5907 275.856 15.6062V24H271.711V15.8653C271.711 14.1554 270.648 12.9637 269.094 12.9637C267.54 12.9637 266.477 14.1554 266.477 15.8653V24H262.332V9.7513H266.477V11.2539C267.436 10.114 268.861 9.49223 270.571 9.49223ZM285.115 9.49223C289.934 9.49223 292.68 13.8964 292.084 18.456H282.006C282.524 19.7772 283.664 20.5803 285.089 20.5803C286.177 20.5803 287.136 20.0622 287.757 19.2073L290.918 21.3834C289.597 23.1969 287.654 24.2591 285.115 24.2591C280.97 24.2591 277.939 21.0725 277.939 16.8756C277.939 12.6528 280.97 9.49223 285.115 9.49223ZM285.089 13.2228C283.535 13.2228 282.343 14.1295 281.928 15.6062H288.12C287.783 14.3109 286.773 13.2228 285.089 13.2228Z" fill="#E99736"/>
</svg>
